{
    "asset" : {
        "generator" : "Khronos glTF Blender I/O v1.1.46",
        "version" : "2.0"
    },
    "scene" : 0,
    "scenes" : [
        {
            "name" : "Scene",
            "nodes" : [
                5
            ]
        }
    ],
    "nodes" : [
        {
            "mesh" : 0,
            "name" : "GLASSES_3.015",
            "translation" : [
                -0.06908195465803146,
                -0.011816920712590218,
                0.05609358102083206
            ]
        },
        {
            "children" : [
                0
            ],
            "mesh" : 1,
            "name" : "GLASSES_3.012",
            "translation" : [
                0.06908195465803146,
                0.011816920712590218,
                -0.05609358102083206
            ]
        },
        {
            "mesh" : 2,
            "name" : "GLASSES_3.014"
        },
        {
            "mesh" : 3,
            "name" : "GLASSES_3.017",
            "translation" : [
                0.06908195465803146,
                -0.011816920712590218,
                0.05609358102083206
            ]
        },
        {
            "children" : [
                3
            ],
            "mesh" : 4,
            "name" : "GLASSES_3.016",
            "translation" : [
                -0.06908195465803146,
                0.011816920712590218,
                -0.05609358102083206
            ]
        },
        {
            "children" : [
                1,
                2,
                4
            ],
            "mesh" : 5,
            "name" : "GLASSES",
            "translation" : [
                0,
                0.02126557193696499,
                0.012440359219908714
            ]
        }
    ],
    "materials" : [
        {
            "doubleSided" : true,
            "emissiveFactor" : [
                0,
                0,
                0
            ],
            "name" : "Glasses _Black",
            "pbrMetallicRoughness" : {
                "baseColorTexture" : {
                    "index" : 0,
                    "texCoord" : 0
                },
                "metallicRoughnessTexture" : {
                    "index" : 1,
                    "texCoord" : 0
                }
            }
        }
    ],
    "meshes" : [
        {
            "name" : "Untitled.014",
            "primitives" : [
                {
                    "attributes" : {
                        "POSITION" : 0,
                        "NORMAL" : 1,
                        "TEXCOORD_0" : 2
                    },
                    "indices" : 3,
                    "material" : 0
                }
            ]
        },
        {
            "name" : "Untitled.021",
            "primitives" : [
                {
                    "attributes" : {
                        "POSITION" : 4,
                        "NORMAL" : 5,
                        "TEXCOORD_0" : 6
                    },
                    "indices" : 7,
                    "material" : 0
                }
            ]
        },
        {
            "name" : "Untitled.012",
            "primitives" : [
                {
                    "attributes" : {
                        "POSITION" : 8,
                        "NORMAL" : 9,
                        "TEXCOORD_0" : 10
                    },
                    "indices" : 11,
                    "material" : 0
                }
            ]
        },
        {
            "name" : "Untitled.017",
            "primitives" : [
                {
                    "attributes" : {
                        "POSITION" : 12,
                        "NORMAL" : 13,
                        "TEXCOORD_0" : 14
                    },
                    "indices" : 15,
                    "material" : 0
                }
            ]
        },
        {
            "name" : "Untitled.016",
            "primitives" : [
                {
                    "attributes" : {
                        "POSITION" : 16,
                        "NORMAL" : 17,
                        "TEXCOORD_0" : 18
                    },
                    "indices" : 19,
                    "material" : 0
                }
            ]
        },
        {
            "name" : "Untitled.001",
            "primitives" : [
                {
                    "attributes" : {
                        "POSITION" : 20,
                        "NORMAL" : 21,
                        "TEXCOORD_0" : 22
                    },
                    "indices" : 23,
                    "material" : 0
                }
            ]
        }
    ],
    "textures" : [
        {
            "source" : 0
        },
        {
            "source" : 1
        }
    ],
    "images" : [
        {
            "bufferView" : 4,
            "mimeType" : "image/png",
            "name" : "Glasses_Color.png"
        },
        {
            "bufferView" : 5,
            "mimeType" : "image/png",
            "name" : "Glasses_Metalness.png-Glasses_roughness"
        }
    ],
    "accessors" : [
        {
            "bufferView" : 0,
            "componentType" : 5126,
            "count" : 409,
            "max" : [
                0.07917746156454086,
                0.01935398019850254,
                0.07735269516706467
            ],
            "min" : [
                0.0636768639087677,
                -0.014531307853758335,
                0.027373142540454865
            ],
            "type" : "VEC3"
        },
        {
            "bufferView" : 1,
            "componentType" : 5126,
            "count" : 409,
            "type" : "VEC3"
        },
        {
            "bufferView" : 2,
            "componentType" : 5126,
            "count" : 409,
            "type" : "VEC2"
        },
        {
            "bufferView" : 3,
            "componentType" : 5123,
            "count" : 2064,
            "type" : "SCALAR"
        },
        {
            "bufferView" : 6,
            "componentType" : 5126,
            "count" : 1740,
            "max" : [
                0.01010558009147644,
                0.00760943628847599,
                0.08344335854053497
            ],
            "min" : [
                -0.0016866996884346008,
                -0.005008027423173189,
                -0.0037747621536254883
            ],
            "type" : "VEC3"
        },
        {
            "bufferView" : 7,
            "componentType" : 5126,
            "count" : 1740,
            "type" : "VEC3"
        },
        {
            "bufferView" : 8,
            "componentType" : 5126,
            "count" : 1740,
            "type" : "VEC2"
        },
        {
            "bufferView" : 9,
            "componentType" : 5123,
            "count" : 8976,
            "type" : "SCALAR"
        },
        {
            "bufferView" : 10,
            "componentType" : 5126,
            "count" : 1668,
            "max" : [
                0.0667898878455162,
                0.019461538642644882,
                -0.06313817203044891
            ],
            "min" : [
                -0.0667899027466774,
                -0.021043654531240463,
                -0.07466836273670197
            ],
            "type" : "VEC3"
        },
        {
            "bufferView" : 11,
            "componentType" : 5126,
            "count" : 1668,
            "type" : "VEC3"
        },
        {
            "bufferView" : 12,
            "componentType" : 5126,
            "count" : 1668,
            "type" : "VEC2"
        },
        {
            "bufferView" : 13,
            "componentType" : 5123,
            "count" : 9312,
            "type" : "SCALAR"
        },
        {
            "bufferView" : 14,
            "componentType" : 5126,
            "count" : 406,
            "max" : [
                -0.06367680430412292,
                0.01935397833585739,
                0.07735273987054825
            ],
            "min" : [
                -0.07917743921279907,
                -0.014531310647726059,
                0.027373194694519043
            ],
            "type" : "VEC3"
        },
        {
            "bufferView" : 15,
            "componentType" : 5126,
            "count" : 406,
            "type" : "VEC3"
        },
        {
            "bufferView" : 16,
            "componentType" : 5126,
            "count" : 406,
            "type" : "VEC2"
        },
        {
            "bufferView" : 17,
            "componentType" : 5123,
            "count" : 2064,
            "type" : "SCALAR"
        },
        {
            "bufferView" : 18,
            "componentType" : 5126,
            "count" : 1740,
            "max" : [
                0.0016866475343704224,
                0.007609432563185692,
                0.08344341069459915
            ],
            "min" : [
                -0.010102853178977966,
                -0.005008028820157051,
                -0.0037747137248516083
            ],
            "type" : "VEC3"
        },
        {
            "bufferView" : 19,
            "componentType" : 5126,
            "count" : 1740,
            "type" : "VEC3"
        },
        {
            "bufferView" : 20,
            "componentType" : 5126,
            "count" : 1740,
            "type" : "VEC2"
        },
        {
            "bufferView" : 21,
            "componentType" : 5123,
            "count" : 8976,
            "type" : "SCALAR"
        },
        {
            "bufferView" : 22,
            "componentType" : 5126,
            "count" : 8306,
            "max" : [
                0.07574562728404999,
                0.021828627213835716,
                -0.054468728601932526
            ],
            "min" : [
                -0.07574562728404999,
                -0.021820219233632088,
                -0.07749689370393753
            ],
            "type" : "VEC3"
        },
        {
            "bufferView" : 23,
            "componentType" : 5126,
            "count" : 8306,
            "type" : "VEC3"
        },
        {
            "bufferView" : 24,
            "componentType" : 5126,
            "count" : 8306,
            "type" : "VEC2"
        },
        {
            "bufferView" : 25,
            "componentType" : 5123,
            "count" : 44424,
            "type" : "SCALAR"
        }
    ],
    "bufferViews" : [
        {
            "buffer" : 0,
            "byteLength" : 4908,
            "byteOffset" : 0
        },
        {
            "buffer" : 0,
            "byteLength" : 4908,
            "byteOffset" : 4908
        },
        {
            "buffer" : 0,
            "byteLength" : 3272,
            "byteOffset" : 9816
        },
        {
            "buffer" : 0,
            "byteLength" : 4128,
            "byteOffset" : 13088
        },
        {
            "buffer" : 0,
            "byteLength" : 124984,
            "byteOffset" : 17216
        },
        {
            "buffer" : 0,
            "byteLength" : 197784,
            "byteOffset" : 142200
        },
        {
            "buffer" : 0,
            "byteLength" : 20880,
            "byteOffset" : 339984
        },
        {
            "buffer" : 0,
            "byteLength" : 20880,
            "byteOffset" : 360864
        },
        {
            "buffer" : 0,
            "byteLength" : 13920,
            "byteOffset" : 381744
        },
        {
            "buffer" : 0,
            "byteLength" : 17952,
            "byteOffset" : 395664
        },
        {
            "buffer" : 0,
            "byteLength" : 20016,
            "byteOffset" : 413616
        },
        {
            "buffer" : 0,
            "byteLength" : 20016,
            "byteOffset" : 433632
        },
        {
            "buffer" : 0,
            "byteLength" : 13344,
            "byteOffset" : 453648
        },
        {
            "buffer" : 0,
            "byteLength" : 18624,
            "byteOffset" : 466992
        },
        {
            "buffer" : 0,
            "byteLength" : 4872,
            "byteOffset" : 485616
        },
        {
            "buffer" : 0,
            "byteLength" : 4872,
            "byteOffset" : 490488
        },
        {
            "buffer" : 0,
            "byteLength" : 3248,
            "byteOffset" : 495360
        },
        {
            "buffer" : 0,
            "byteLength" : 4128,
            "byteOffset" : 498608
        },
        {
            "buffer" : 0,
            "byteLength" : 20880,
            "byteOffset" : 502736
        },
        {
            "buffer" : 0,
            "byteLength" : 20880,
            "byteOffset" : 523616
        },
        {
            "buffer" : 0,
            "byteLength" : 13920,
            "byteOffset" : 544496
        },
        {
            "buffer" : 0,
            "byteLength" : 17952,
            "byteOffset" : 558416
        },
        {
            "buffer" : 0,
            "byteLength" : 99672,
            "byteOffset" : 576368
        },
        {
            "buffer" : 0,
            "byteLength" : 99672,
            "byteOffset" : 676040
        },
        {
            "buffer" : 0,
            "byteLength" : 66448,
            "byteOffset" : 775712
        },
        {
            "buffer" : 0,
            "byteLength" : 88848,
            "byteOffset" : 842160
        }
    ],
    "buffers" : [
        {
            "byteLength" : 931008,
            "uri" : "data:application/octet-stream;base64,"
        }
    ]
}
